<mxfile host="app.diagrams.net" modified="2023-12-04T06:20:18.958Z" agent="Mozilla/5.0 (Windows NT 10.0; Win64; x64) AppleWebKit/537.36 (KHTML, like Gecko) Chrome/119.0.0.0 Safari/537.36" etag="7C-OouwtabBpqiYVscpl" version="22.1.5" type="github">
  <diagram name="Page-1" id="AMdU_xkVBgLGQG_bQsmR">
    <mxGraphModel dx="880" dy="516" grid="1" gridSize="10" guides="1" tooltips="1" connect="1" arrows="1" fold="1" page="1" pageScale="1" pageWidth="850" pageHeight="1100" math="0" shadow="0">
      <root>
        <mxCell id="0" />
        <mxCell id="1" parent="0" />
        <mxCell id="53iNG_w205cJMGycBdO0-1" value="1" style="ellipse;whiteSpace=wrap;html=1;aspect=fixed;" vertex="1" parent="1">
          <mxGeometry x="40" y="280" width="40" height="40" as="geometry" />
        </mxCell>
        <mxCell id="53iNG_w205cJMGycBdO0-2" value="" style="endArrow=classic;html=1;rounded=0;entryX=0.1;entryY=0.675;entryDx=0;entryDy=0;entryPerimeter=0;" edge="1" parent="1" target="53iNG_w205cJMGycBdO0-10">
          <mxGeometry width="50" height="50" relative="1" as="geometry">
            <mxPoint x="70" y="280" as="sourcePoint" />
            <mxPoint x="190" y="230" as="targetPoint" />
          </mxGeometry>
        </mxCell>
        <mxCell id="53iNG_w205cJMGycBdO0-13" value="A(1, 10)" style="edgeLabel;html=1;align=center;verticalAlign=middle;resizable=0;points=[];" vertex="1" connectable="0" parent="53iNG_w205cJMGycBdO0-2">
          <mxGeometry x="-0.2842" y="1" relative="1" as="geometry">
            <mxPoint y="-11" as="offset" />
          </mxGeometry>
        </mxCell>
        <mxCell id="53iNG_w205cJMGycBdO0-4" value="11" style="ellipse;whiteSpace=wrap;html=1;aspect=fixed;" vertex="1" parent="1">
          <mxGeometry x="740" y="410" width="40" height="40" as="geometry" />
        </mxCell>
        <mxCell id="53iNG_w205cJMGycBdO0-5" value="7" style="ellipse;whiteSpace=wrap;html=1;aspect=fixed;" vertex="1" parent="1">
          <mxGeometry x="520" y="200" width="40" height="40" as="geometry" />
        </mxCell>
        <mxCell id="53iNG_w205cJMGycBdO0-6" value="6" style="ellipse;whiteSpace=wrap;html=1;aspect=fixed;" vertex="1" parent="1">
          <mxGeometry x="530" y="120" width="40" height="40" as="geometry" />
        </mxCell>
        <mxCell id="53iNG_w205cJMGycBdO0-7" value="5" style="ellipse;whiteSpace=wrap;html=1;aspect=fixed;" vertex="1" parent="1">
          <mxGeometry x="480" y="30" width="40" height="40" as="geometry" />
        </mxCell>
        <mxCell id="53iNG_w205cJMGycBdO0-8" value="4" style="ellipse;whiteSpace=wrap;html=1;aspect=fixed;" vertex="1" parent="1">
          <mxGeometry x="335" y="140" width="40" height="40" as="geometry" />
        </mxCell>
        <mxCell id="53iNG_w205cJMGycBdO0-9" value="3" style="ellipse;whiteSpace=wrap;html=1;aspect=fixed;direction=south;" vertex="1" parent="1">
          <mxGeometry x="220" y="190" width="40" height="40" as="geometry" />
        </mxCell>
        <mxCell id="53iNG_w205cJMGycBdO0-10" value="2" style="ellipse;whiteSpace=wrap;html=1;aspect=fixed;" vertex="1" parent="1">
          <mxGeometry x="120" y="230" width="40" height="40" as="geometry" />
        </mxCell>
        <mxCell id="53iNG_w205cJMGycBdO0-11" value="" style="endArrow=classic;html=1;rounded=0;exitX=1;exitY=0.35;exitDx=0;exitDy=0;exitPerimeter=0;entryX=0.675;entryY=0.95;entryDx=0;entryDy=0;entryPerimeter=0;" edge="1" parent="1" source="53iNG_w205cJMGycBdO0-10" target="53iNG_w205cJMGycBdO0-9">
          <mxGeometry width="50" height="50" relative="1" as="geometry">
            <mxPoint x="230" y="210" as="sourcePoint" />
            <mxPoint x="350" y="170" as="targetPoint" />
          </mxGeometry>
        </mxCell>
        <mxCell id="53iNG_w205cJMGycBdO0-14" value="B(11, 35)" style="edgeLabel;html=1;align=center;verticalAlign=middle;resizable=0;points=[];rotation=-25;" vertex="1" connectable="0" parent="53iNG_w205cJMGycBdO0-11">
          <mxGeometry x="-0.2429" y="-1" relative="1" as="geometry">
            <mxPoint x="-4" y="-15" as="offset" />
          </mxGeometry>
        </mxCell>
        <mxCell id="53iNG_w205cJMGycBdO0-72" value="(11, 35)" style="edgeLabel;html=1;align=center;verticalAlign=middle;resizable=0;points=[];rotation=-25;fontColor=#FF0000;" vertex="1" connectable="0" parent="53iNG_w205cJMGycBdO0-11">
          <mxGeometry x="-0.2429" y="-1" relative="1" as="geometry">
            <mxPoint x="-4" y="-35" as="offset" />
          </mxGeometry>
        </mxCell>
        <mxCell id="53iNG_w205cJMGycBdO0-73" value="(1, 10)" style="edgeLabel;html=1;align=center;verticalAlign=middle;resizable=0;points=[];rotation=-25;fontColor=#FF0000;" vertex="1" connectable="0" parent="53iNG_w205cJMGycBdO0-11">
          <mxGeometry x="-0.2429" y="-1" relative="1" as="geometry">
            <mxPoint x="-104" y="5" as="offset" />
          </mxGeometry>
        </mxCell>
        <mxCell id="53iNG_w205cJMGycBdO0-12" value="" style="endArrow=classic;html=1;rounded=0;exitX=0.35;exitY=0.05;exitDx=0;exitDy=0;exitPerimeter=0;entryX=0.075;entryY=0.675;entryDx=0;entryDy=0;entryPerimeter=0;" edge="1" parent="1" source="53iNG_w205cJMGycBdO0-9" target="53iNG_w205cJMGycBdO0-8">
          <mxGeometry width="50" height="50" relative="1" as="geometry">
            <mxPoint x="260" y="200" as="sourcePoint" />
            <mxPoint x="340" y="170" as="targetPoint" />
          </mxGeometry>
        </mxCell>
        <mxCell id="53iNG_w205cJMGycBdO0-15" value="C(36, 38)" style="edgeLabel;html=1;align=center;verticalAlign=middle;resizable=0;points=[];rotation=-30;" vertex="1" connectable="0" parent="53iNG_w205cJMGycBdO0-12">
          <mxGeometry x="0.1299" y="1" relative="1" as="geometry">
            <mxPoint x="-13" y="-3" as="offset" />
          </mxGeometry>
        </mxCell>
        <mxCell id="53iNG_w205cJMGycBdO0-71" value="(36, 38)" style="edgeLabel;html=1;align=center;verticalAlign=middle;resizable=0;points=[];rotation=-30;fontColor=#FF0000;" vertex="1" connectable="0" parent="53iNG_w205cJMGycBdO0-12">
          <mxGeometry x="0.1299" y="1" relative="1" as="geometry">
            <mxPoint x="-18" y="-20" as="offset" />
          </mxGeometry>
        </mxCell>
        <mxCell id="53iNG_w205cJMGycBdO0-16" value="" style="endArrow=classic;html=1;rounded=0;exitX=1;exitY=0;exitDx=0;exitDy=0;" edge="1" parent="1" source="53iNG_w205cJMGycBdO0-8" target="53iNG_w205cJMGycBdO0-7">
          <mxGeometry width="50" height="50" relative="1" as="geometry">
            <mxPoint x="380" y="150" as="sourcePoint" />
            <mxPoint x="450" y="110" as="targetPoint" />
          </mxGeometry>
        </mxCell>
        <mxCell id="53iNG_w205cJMGycBdO0-20" value="D(39, 98)" style="edgeLabel;html=1;align=center;verticalAlign=middle;resizable=0;points=[];rotation=40;" vertex="1" connectable="0" parent="53iNG_w205cJMGycBdO0-16">
          <mxGeometry x="-0.0671" y="-1" relative="1" as="geometry">
            <mxPoint x="17" y="132" as="offset" />
          </mxGeometry>
        </mxCell>
        <mxCell id="53iNG_w205cJMGycBdO0-17" value="" style="endArrow=classic;html=1;rounded=0;exitX=1;exitY=0.5;exitDx=0;exitDy=0;entryX=0;entryY=0.5;entryDx=0;entryDy=0;" edge="1" parent="1" source="53iNG_w205cJMGycBdO0-8" target="53iNG_w205cJMGycBdO0-6">
          <mxGeometry width="50" height="50" relative="1" as="geometry">
            <mxPoint x="410" y="190" as="sourcePoint" />
            <mxPoint x="480" y="150" as="targetPoint" />
          </mxGeometry>
        </mxCell>
        <mxCell id="53iNG_w205cJMGycBdO0-21" value="E(39, 58)" style="edgeLabel;html=1;align=center;verticalAlign=middle;resizable=0;points=[];rotation=-25;" vertex="1" connectable="0" parent="53iNG_w205cJMGycBdO0-17">
          <mxGeometry x="-0.1686" y="3" relative="1" as="geometry">
            <mxPoint x="-10" y="-62" as="offset" />
          </mxGeometry>
        </mxCell>
        <mxCell id="53iNG_w205cJMGycBdO0-19" value="" style="endArrow=classic;html=1;rounded=0;exitX=1;exitY=1;exitDx=0;exitDy=0;entryX=0;entryY=0.35;entryDx=0;entryDy=0;entryPerimeter=0;" edge="1" parent="1" source="53iNG_w205cJMGycBdO0-8" target="53iNG_w205cJMGycBdO0-5">
          <mxGeometry width="50" height="50" relative="1" as="geometry">
            <mxPoint x="380" y="270" as="sourcePoint" />
            <mxPoint x="470" y="210" as="targetPoint" />
          </mxGeometry>
        </mxCell>
        <mxCell id="53iNG_w205cJMGycBdO0-22" value="F(39, 48)" style="edgeLabel;html=1;align=center;verticalAlign=middle;resizable=0;points=[];rotation=-5;" vertex="1" connectable="0" parent="53iNG_w205cJMGycBdO0-19">
          <mxGeometry x="-0.0473" y="-1" relative="1" as="geometry">
            <mxPoint x="4" y="-50" as="offset" />
          </mxGeometry>
        </mxCell>
        <mxCell id="53iNG_w205cJMGycBdO0-25" value="10" style="ellipse;whiteSpace=wrap;html=1;aspect=fixed;" vertex="1" parent="1">
          <mxGeometry x="640" y="310" width="40" height="40" as="geometry" />
        </mxCell>
        <mxCell id="53iNG_w205cJMGycBdO0-26" value="9" style="ellipse;whiteSpace=wrap;html=1;aspect=fixed;" vertex="1" parent="1">
          <mxGeometry x="490" y="300" width="40" height="40" as="geometry" />
        </mxCell>
        <mxCell id="53iNG_w205cJMGycBdO0-27" value="8" style="ellipse;whiteSpace=wrap;html=1;aspect=fixed;" vertex="1" parent="1">
          <mxGeometry x="700" y="140" width="40" height="40" as="geometry" />
        </mxCell>
        <mxCell id="53iNG_w205cJMGycBdO0-28" value="" style="endArrow=classic;html=1;rounded=0;exitX=1;exitY=0;exitDx=0;exitDy=0;entryX=0;entryY=0;entryDx=0;entryDy=0;" edge="1" parent="1" source="53iNG_w205cJMGycBdO0-7" target="53iNG_w205cJMGycBdO0-27">
          <mxGeometry width="50" height="50" relative="1" as="geometry">
            <mxPoint x="490" y="100" as="sourcePoint" />
            <mxPoint x="660" y="140" as="targetPoint" />
          </mxGeometry>
        </mxCell>
        <mxCell id="53iNG_w205cJMGycBdO0-29" value="" style="endArrow=classic;html=1;rounded=0;exitX=1;exitY=0.5;exitDx=0;exitDy=0;entryX=0;entryY=0.5;entryDx=0;entryDy=0;" edge="1" parent="1" source="53iNG_w205cJMGycBdO0-6" target="53iNG_w205cJMGycBdO0-27">
          <mxGeometry width="50" height="50" relative="1" as="geometry">
            <mxPoint x="510" y="140" as="sourcePoint" />
            <mxPoint x="650" y="160" as="targetPoint" />
          </mxGeometry>
        </mxCell>
        <mxCell id="53iNG_w205cJMGycBdO0-30" value="" style="endArrow=classic;html=1;rounded=0;exitX=1;exitY=0.5;exitDx=0;exitDy=0;entryX=0;entryY=1;entryDx=0;entryDy=0;" edge="1" parent="1" source="53iNG_w205cJMGycBdO0-5" target="53iNG_w205cJMGycBdO0-27">
          <mxGeometry width="50" height="50" relative="1" as="geometry">
            <mxPoint x="510" y="160" as="sourcePoint" />
            <mxPoint x="660" y="180" as="targetPoint" />
          </mxGeometry>
        </mxCell>
        <mxCell id="53iNG_w205cJMGycBdO0-32" value="" style="endArrow=classic;html=1;rounded=0;entryX=1;entryY=0;entryDx=0;entryDy=0;exitX=0.5;exitY=1;exitDx=0;exitDy=0;" edge="1" parent="1" source="53iNG_w205cJMGycBdO0-27" target="53iNG_w205cJMGycBdO0-26">
          <mxGeometry width="50" height="50" relative="1" as="geometry">
            <mxPoint x="640" y="140" as="sourcePoint" />
            <mxPoint x="760" y="160" as="targetPoint" />
          </mxGeometry>
        </mxCell>
        <mxCell id="53iNG_w205cJMGycBdO0-33" value="H(59, 63)" style="edgeLabel;html=1;align=center;verticalAlign=middle;resizable=0;points=[];rotation=-30;" vertex="1" connectable="0" parent="53iNG_w205cJMGycBdO0-32">
          <mxGeometry x="0.0825" relative="1" as="geometry">
            <mxPoint x="-17" y="-2" as="offset" />
          </mxGeometry>
        </mxCell>
        <mxCell id="53iNG_w205cJMGycBdO0-34" value="" style="endArrow=classic;html=1;rounded=0;exitX=0.5;exitY=1;exitDx=0;exitDy=0;entryX=0;entryY=0;entryDx=0;entryDy=0;" edge="1" parent="1" source="53iNG_w205cJMGycBdO0-8" target="53iNG_w205cJMGycBdO0-26">
          <mxGeometry width="50" height="50" relative="1" as="geometry">
            <mxPoint x="330" y="560" as="sourcePoint" />
            <mxPoint x="430" y="320" as="targetPoint" />
          </mxGeometry>
        </mxCell>
        <mxCell id="53iNG_w205cJMGycBdO0-47" value="G(39, 53)" style="edgeLabel;html=1;align=center;verticalAlign=middle;resizable=0;points=[];rotation=15;" vertex="1" connectable="0" parent="53iNG_w205cJMGycBdO0-34">
          <mxGeometry x="-0.0242" y="2" relative="1" as="geometry">
            <mxPoint x="34" y="-56" as="offset" />
          </mxGeometry>
        </mxCell>
        <mxCell id="53iNG_w205cJMGycBdO0-38" value="" style="endArrow=classic;html=1;rounded=0;exitX=1;exitY=1;exitDx=0;exitDy=0;entryX=0;entryY=0.5;entryDx=0;entryDy=0;" edge="1" parent="1" source="53iNG_w205cJMGycBdO0-26" target="53iNG_w205cJMGycBdO0-25">
          <mxGeometry width="50" height="50" relative="1" as="geometry">
            <mxPoint x="410" y="510" as="sourcePoint" />
            <mxPoint x="460" y="460" as="targetPoint" />
          </mxGeometry>
        </mxCell>
        <mxCell id="53iNG_w205cJMGycBdO0-39" value="I(99, 108)" style="edgeLabel;html=1;align=center;verticalAlign=middle;resizable=0;points=[];" vertex="1" connectable="0" parent="53iNG_w205cJMGycBdO0-38">
          <mxGeometry x="-0.1268" y="3" relative="1" as="geometry">
            <mxPoint y="-11" as="offset" />
          </mxGeometry>
        </mxCell>
        <mxCell id="53iNG_w205cJMGycBdO0-40" value="" style="endArrow=classic;html=1;rounded=0;exitX=1;exitY=0.5;exitDx=0;exitDy=0;entryX=0;entryY=0.5;entryDx=0;entryDy=0;" edge="1" parent="1" source="53iNG_w205cJMGycBdO0-25" target="53iNG_w205cJMGycBdO0-4">
          <mxGeometry width="50" height="50" relative="1" as="geometry">
            <mxPoint x="700" y="260" as="sourcePoint" />
            <mxPoint x="800" y="290" as="targetPoint" />
          </mxGeometry>
        </mxCell>
        <mxCell id="53iNG_w205cJMGycBdO0-41" value="J(109, 110)" style="edgeLabel;html=1;align=center;verticalAlign=middle;resizable=0;points=[];rotation=60;" vertex="1" connectable="0" parent="53iNG_w205cJMGycBdO0-40">
          <mxGeometry x="0.1976" y="-1" relative="1" as="geometry">
            <mxPoint x="6" y="-19" as="offset" />
          </mxGeometry>
        </mxCell>
        <mxCell id="53iNG_w205cJMGycBdO0-42" value="" style="endArrow=classic;html=1;rounded=0;exitX=1;exitY=1;exitDx=0;exitDy=0;entryX=0;entryY=1;entryDx=0;entryDy=0;" edge="1" parent="1" source="53iNG_w205cJMGycBdO0-1" target="53iNG_w205cJMGycBdO0-4">
          <mxGeometry width="50" height="50" relative="1" as="geometry">
            <mxPoint x="160" y="490" as="sourcePoint" />
            <mxPoint x="210" y="440" as="targetPoint" />
          </mxGeometry>
        </mxCell>
        <mxCell id="53iNG_w205cJMGycBdO0-51" value="(10d)" style="text;html=1;align=center;verticalAlign=middle;resizable=0;points=[];autosize=1;strokeColor=none;fillColor=none;" vertex="1" parent="1">
          <mxGeometry x="75" y="270" width="50" height="30" as="geometry" />
        </mxCell>
        <mxCell id="53iNG_w205cJMGycBdO0-52" value="(25d)" style="text;html=1;align=center;verticalAlign=middle;resizable=0;points=[];autosize=1;strokeColor=none;fillColor=none;" vertex="1" parent="1">
          <mxGeometry x="170" y="230" width="50" height="30" as="geometry" />
        </mxCell>
        <mxCell id="53iNG_w205cJMGycBdO0-53" value="(3d)" style="text;html=1;align=center;verticalAlign=middle;resizable=0;points=[];autosize=1;strokeColor=none;fillColor=none;" vertex="1" parent="1">
          <mxGeometry x="285" y="180" width="40" height="30" as="geometry" />
        </mxCell>
        <mxCell id="53iNG_w205cJMGycBdO0-54" value="(20d)" style="text;html=1;align=center;verticalAlign=middle;resizable=0;points=[];autosize=1;strokeColor=none;fillColor=none;rotation=-40;" vertex="1" parent="1">
          <mxGeometry x="409" y="95" width="50" height="30" as="geometry" />
        </mxCell>
        <mxCell id="53iNG_w205cJMGycBdO0-55" value="(10d)" style="text;html=1;align=center;verticalAlign=middle;resizable=0;points=[];autosize=1;strokeColor=none;fillColor=none;rotation=0;" vertex="1" parent="1">
          <mxGeometry x="440" y="145" width="50" height="30" as="geometry" />
        </mxCell>
        <mxCell id="53iNG_w205cJMGycBdO0-56" value="(15d)" style="text;html=1;align=center;verticalAlign=middle;resizable=0;points=[];autosize=1;strokeColor=none;fillColor=none;rotation=15;" vertex="1" parent="1">
          <mxGeometry x="430" y="190" width="50" height="30" as="geometry" />
        </mxCell>
        <mxCell id="53iNG_w205cJMGycBdO0-57" value="(60d)" style="text;html=1;align=center;verticalAlign=middle;resizable=0;points=[];autosize=1;strokeColor=none;fillColor=none;rotation=45;" vertex="1" parent="1">
          <mxGeometry x="390" y="235" width="50" height="30" as="geometry" />
        </mxCell>
        <mxCell id="53iNG_w205cJMGycBdO0-58" value="(5d)" style="text;html=1;align=center;verticalAlign=middle;resizable=0;points=[];autosize=1;strokeColor=none;fillColor=none;rotation=-30;" vertex="1" parent="1">
          <mxGeometry x="597" y="247" width="40" height="30" as="geometry" />
        </mxCell>
        <mxCell id="53iNG_w205cJMGycBdO0-61" value="(10d)" style="text;html=1;align=center;verticalAlign=middle;resizable=0;points=[];autosize=1;strokeColor=none;fillColor=none;rotation=5;" vertex="1" parent="1">
          <mxGeometry x="552" y="330" width="50" height="30" as="geometry" />
        </mxCell>
        <mxCell id="53iNG_w205cJMGycBdO0-62" value="(2d)" style="text;html=1;align=center;verticalAlign=middle;resizable=0;points=[];autosize=1;strokeColor=none;fillColor=none;rotation=60;" vertex="1" parent="1">
          <mxGeometry x="680" y="365" width="40" height="30" as="geometry" />
        </mxCell>
        <mxCell id="53iNG_w205cJMGycBdO0-63" value="&lt;font color=&quot;#ff0000&quot;&gt;(109, 110)&lt;/font&gt;" style="text;html=1;align=center;verticalAlign=middle;resizable=0;points=[];autosize=1;strokeColor=none;fillColor=none;rotation=60;" vertex="1" parent="1">
          <mxGeometry x="700" y="350" width="80" height="30" as="geometry" />
        </mxCell>
        <mxCell id="53iNG_w205cJMGycBdO0-64" value="&lt;font color=&quot;#ff0000&quot;&gt;(99, 108)&lt;/font&gt;" style="text;html=1;align=center;verticalAlign=middle;resizable=0;points=[];autosize=1;strokeColor=none;fillColor=none;rotation=0;" vertex="1" parent="1">
          <mxGeometry x="560" y="285" width="70" height="30" as="geometry" />
        </mxCell>
        <mxCell id="53iNG_w205cJMGycBdO0-65" value="&lt;font color=&quot;#ff0000&quot;&gt;(94, 98)&lt;/font&gt;" style="text;html=1;align=center;verticalAlign=middle;resizable=0;points=[];autosize=1;strokeColor=none;fillColor=none;rotation=0;" vertex="1" parent="1">
          <mxGeometry x="630" y="235" width="60" height="30" as="geometry" />
        </mxCell>
        <mxCell id="53iNG_w205cJMGycBdO0-66" value="&lt;font color=&quot;#ff0000&quot;&gt;(74, 93)&lt;/font&gt;" style="text;html=1;align=center;verticalAlign=middle;resizable=0;points=[];autosize=1;strokeColor=none;fillColor=none;rotation=-41;" vertex="1" parent="1">
          <mxGeometry x="385" y="60" width="60" height="30" as="geometry" />
        </mxCell>
        <mxCell id="53iNG_w205cJMGycBdO0-67" value="&lt;font color=&quot;#ff0000&quot;&gt;(84, 93)&lt;/font&gt;" style="text;html=1;align=center;verticalAlign=middle;resizable=0;points=[];autosize=1;strokeColor=none;fillColor=none;rotation=0;" vertex="1" parent="1">
          <mxGeometry x="440" y="110" width="60" height="30" as="geometry" />
        </mxCell>
        <mxCell id="53iNG_w205cJMGycBdO0-68" value="&lt;font color=&quot;#ff0000&quot;&gt;(79, 93)&lt;/font&gt;" style="text;html=1;align=center;verticalAlign=middle;resizable=0;points=[];autosize=1;strokeColor=none;fillColor=none;rotation=0;" vertex="1" parent="1">
          <mxGeometry x="470" y="160" width="60" height="30" as="geometry" />
        </mxCell>
        <mxCell id="53iNG_w205cJMGycBdO0-69" value="&lt;font color=&quot;#ff0000&quot;&gt;(39, 98)&lt;/font&gt;" style="text;html=1;align=center;verticalAlign=middle;resizable=0;points=[];autosize=1;strokeColor=none;fillColor=none;rotation=45;" vertex="1" parent="1">
          <mxGeometry x="445" y="230" width="60" height="30" as="geometry" />
        </mxCell>
      </root>
    </mxGraphModel>
  </diagram>
</mxfile>
